<svg version="1.1" xmlns="http://www.w3.org/2000/svg" xmlns:xlink="http://www.w3.org/1999/xlink" width="1179" height="804"><defs></defs><g><g transform="scale(1,1)"><rect fill="#C0C0C0" stroke="none" x="277" y="637" width="207" height="99" opacity="0.2"></rect></g><g transform="scale(1,1)"><rect fill="#ffffff" stroke="none" x="270" y="630" width="207" height="99"></rect></g><g transform="scale(1,1)"><path fill="none" stroke="#000000" d="M 270 630 L 477 630 L 477 729 L 270 729 L 270 630 Z" stroke-miterlimit="10"></path></g><g transform="scale(1,1)"><path fill="none" stroke="#000000" d="M 270 655 L 477 655" stroke-miterlimit="10"></path></g><g transform="scale(1,1)"><path fill="none" stroke="#000000" d="M 270 665 L 477 665" stroke-miterlimit="10"></path></g><g transform="scale(1,1)"><g><path fill="none" stroke="none"></path><text fill="#000000" stroke="none" font-family="Arial" font-size="13px" font-style="normal" font-weight="bold" text-decoration="none" x="347" y="649.5">Launcher</text></g></g><g transform="scale(1,1)"><g><path fill="none" stroke="none"></path><text fill="#000000" stroke="none" font-family="Arial" font-size="13px" font-style="normal" font-weight="normal" text-decoration="none" x="275" y="682.5">+create()</text></g></g><g transform="scale(1,1)"><g><path fill="none" stroke="none"></path><text fill="#000000" stroke="none" font-family="Arial" font-size="13px" font-style="normal" font-weight="normal" text-decoration="none" x="275" y="697.5">+dispose()</text></g></g><g transform="scale(1,1)"><rect fill="#C0C0C0" stroke="none" x="285" y="333" width="187" height="175" opacity="0.2"></rect></g><g transform="scale(1,1)"><rect fill="#ffffff" stroke="none" x="278" y="326" width="187" height="175"></rect></g><g transform="scale(1,1)"><path fill="none" stroke="#000000" d="M 278 326 L 465 326 L 465 501 L 278 501 L 278 326 Z" stroke-miterlimit="10"></path></g><g transform="scale(1,1)"><path fill="none" stroke="#000000" d="M 278 364 L 465 364" stroke-miterlimit="10"></path></g><g transform="scale(1,1)"><path fill="none" stroke="#000000" d="M 278 374 L 465 374" stroke-miterlimit="10"></path></g><g transform="scale(1,1)"><g><path fill="none" stroke="none"></path><text fill="#000000" stroke="none" font-family="Arial" font-size="13px" font-style="normal" font-weight="normal" text-decoration="none" x="347.5" y="343.5">«libgdx»</text></g></g><g transform="scale(1,1)"><g><path fill="none" stroke="none"></path><text fill="#000000" stroke="none" font-family="Arial" font-size="13px" font-style="normal" font-weight="bold" text-decoration="none" x="354" y="358.5">Game</text></g></g><g transform="scale(1,1)"><g><path fill="none" stroke="none"></path><text fill="#000000" stroke="none" font-family="Arial" font-size="13px" font-style="normal" font-weight="normal" text-decoration="none" x="283" y="391.5">+create()</text></g></g><g transform="scale(1,1)"><g><path fill="none" stroke="none"></path><text fill="#000000" stroke="none" font-family="Arial" font-size="13px" font-style="normal" font-weight="normal" text-decoration="none" x="283" y="406.5">+dispose()</text></g></g><g transform="scale(1,1)"><g><path fill="none" stroke="none"></path><text fill="#000000" stroke="none" font-family="Arial" font-size="13px" font-style="normal" font-weight="normal" text-decoration="none" x="283" y="421.5">+pause()</text></g></g><g transform="scale(1,1)"><g><path fill="none" stroke="none"></path><text fill="#000000" stroke="none" font-family="Arial" font-size="13px" font-style="normal" font-weight="normal" text-decoration="none" x="283" y="436.5">+render()</text></g></g><g transform="scale(1,1)"><g><path fill="none" stroke="none"></path><text fill="#000000" stroke="none" font-family="Arial" font-size="13px" font-style="normal" font-weight="normal" text-decoration="none" x="283" y="451.5">+resize(width, height)</text></g></g><g transform="scale(1,1)"><g><path fill="none" stroke="none"></path><text fill="#000000" stroke="none" font-family="Arial" font-size="13px" font-style="normal" font-weight="normal" text-decoration="none" x="283" y="466.5">+resume()</text></g></g><g transform="scale(1,1)"><g><path fill="none" stroke="none"></path><text fill="#000000" stroke="none" font-family="Arial" font-size="13px" font-style="normal" font-weight="normal" text-decoration="none" x="283" y="481.5">+setScreen(screen)</text></g></g><g transform="scale(1,1)"><g><path fill="none" stroke="none"></path><text fill="#000000" stroke="none" font-family="Arial" font-size="13px" font-style="normal" font-weight="normal" text-decoration="none" x="283" y="496.5">+getScreen()</text></g></g><g transform="scale(1,1)"><path fill="none" stroke="#000000" d="M 374 630 L 374 501" stroke-miterlimit="10"></path></g><g transform="scale(1,1)"><path fill="#FFFFFF" stroke="none" d="M 382.419035512032 521.3253497152483 L 374 501 L 365.580964487968 521.3253497152483"></path></g><g transform="scale(1,1)"><path fill="none" stroke="#000000" d="M 382.419035512032 521.3253497152483 L 374 501 L 365.580964487968 521.3253497152483 L 382.419035512032 521.3253497152483" stroke-miterlimit="10"></path></g><g transform="scale(1,1)"><rect fill="#C0C0C0" stroke="none" x="17" y="61" width="159" height="47" opacity="0.2"></rect></g><g transform="scale(1,1)"><rect fill="#ffffff" stroke="none" x="10" y="54" width="159" height="47"></rect></g><g transform="scale(1,1)"><path fill="none" stroke="#000000" d="M 10 54 L 169 54 L 169 101 L 10 101 L 10 54 Z" stroke-miterlimit="10"></path></g><g transform="scale(1,1)"><rect fill="#ffffff" stroke="none" x="10" y="54" width="159" height="47"></rect></g><g transform="scale(1,1)"><path fill="none" stroke="#000000" d="M 10 54 L 169 54 L 169 101 L 10 101 L 10 54 Z" stroke-miterlimit="10"></path></g><g transform="scale(1,1)"><g><path fill="none" stroke="none"></path><text fill="#000000" stroke="none" font-family="Arial" font-size="13px" font-style="normal" font-weight="normal" text-decoration="none" x="65.5" y="71.5">«libgdx»</text></g></g><g transform="scale(1,1)"><g><path fill="none" stroke="none"></path><text fill="#000000" stroke="none" font-family="Arial" font-size="13px" font-style="normal" font-weight="bold" text-decoration="none" x="39" y="86.5">: LwjglApplication</text></g></g><g transform="scale(1,1)"><path fill="none" stroke="#000000" d="M 39 87 L 140 87" stroke-miterlimit="10"></path></g><g transform="scale(1,1)"><rect fill="#C0C0C0" stroke="none" x="281" y="17" width="199" height="155" opacity="0.2"></rect></g><g transform="scale(1,1)"><rect fill="#ffffff" stroke="none" x="274" y="10" width="199" height="155"></rect></g><g transform="scale(1,1)"><path fill="none" stroke="#000000" d="M 274 10 L 473 10 L 473 165 L 274 165 L 274 10 Z" stroke-miterlimit="10"></path></g><g transform="scale(1,1)"><path fill="none" stroke="#000000" d="M 274 48 L 473 48" stroke-miterlimit="10"></path></g><g transform="scale(1,1)"><path fill="none" stroke="#000000" d="M 274 58 L 473 58" stroke-miterlimit="10"></path></g><g transform="scale(1,1)"><g><path fill="none" stroke="none"></path><text fill="#000000" stroke="none" font-family="Arial" font-size="13px" font-style="normal" font-weight="normal" text-decoration="none" x="341.5" y="27.5">«interface»</text></g></g><g transform="scale(1,1)"><g><path fill="none" stroke="none"></path><text fill="#000000" stroke="none" font-family="Arial" font-size="13px" font-style="italic" font-weight="bold" text-decoration="none" x="318.5" y="42.5">ApplicationListener</text></g></g><g transform="scale(1,1)"><g><path fill="none" stroke="none"></path><text fill="#000000" stroke="none" font-family="Arial" font-size="13px" font-style="italic" font-weight="normal" text-decoration="none" x="279" y="75.5">+create()</text></g></g><g transform="scale(1,1)"><g><path fill="none" stroke="none"></path><text fill="#000000" stroke="none" font-family="Arial" font-size="13px" font-style="italic" font-weight="normal" text-decoration="none" x="279" y="90.5">+dispose()</text></g></g><g transform="scale(1,1)"><g><path fill="none" stroke="none"></path><text fill="#000000" stroke="none" font-family="Arial" font-size="13px" font-style="italic" font-weight="normal" text-decoration="none" x="279" y="105.5">+pause()</text></g></g><g transform="scale(1,1)"><g><path fill="none" stroke="none"></path><text fill="#000000" stroke="none" font-family="Arial" font-size="13px" font-style="italic" font-weight="normal" text-decoration="none" x="279" y="120.5">+render()</text></g></g><g transform="scale(1,1)"><g><path fill="none" stroke="none"></path><text fill="#000000" stroke="none" font-family="Arial" font-size="13px" font-style="italic" font-weight="normal" text-decoration="none" x="279" y="135.5">+resize(width, height)</text></g></g><g transform="scale(1,1)"><g><path fill="none" stroke="none"></path><text fill="#000000" stroke="none" font-family="Arial" font-size="13px" font-style="italic" font-weight="normal" text-decoration="none" x="279" y="150.5">+resume()</text></g></g><g transform="scale(1,1)"><path fill="none" stroke="#000000" d="M 374 326 L 374 165" stroke-miterlimit="10"></path></g><g transform="scale(1,1)"><path fill="#FFFFFF" stroke="none" d="M 382.419035512032 185.3253497152483 L 374 165 L 365.580964487968 185.3253497152483"></path></g><g transform="scale(1,1)"><path fill="none" stroke="#000000" d="M 382.419035512032 185.3253497152483 L 374 165 L 365.580964487968 185.3253497152483 L 382.419035512032 185.3253497152483" stroke-miterlimit="10"></path></g><g transform="scale(1,1)"><g><path fill="none" stroke="none"></path><text fill="#000000" stroke="none" font-family="Arial" font-size="13px" font-style="normal" font-weight="normal" text-decoration="none" x="286" y="254">«implements»</text></g></g><g transform="scale(1,1)"><path fill="none" stroke="#000000" d="M 169 77 L 274 77" stroke-miterlimit="10" stroke-dasharray="3"></path></g><g transform="scale(1,1)"><path fill="none" stroke="#000000" d="M 263.83732514237585 81.209517756016 L 274 77 L 263.83732514237585 72.790482243984" stroke-miterlimit="10"></path></g><g transform="scale(1,1)"><g><path fill="none" stroke="none"></path><text fill="#000000" stroke="none" font-family="Arial" font-size="13px" font-style="normal" font-weight="normal" text-decoration="none" x="198" y="70">«calls»</text></g></g><g transform="scale(1,1)"><rect fill="#C0C0C0" stroke="none" x="701" y="337" width="191" height="160" opacity="0.2"></rect></g><g transform="scale(1,1)"><rect fill="#ffffff" stroke="none" x="694" y="330" width="191" height="160"></rect></g><g transform="scale(1,1)"><path fill="none" stroke="#000000" d="M 694 330 L 885 330 L 885 490 L 694 490 L 694 330 Z" stroke-miterlimit="10"></path></g><g transform="scale(1,1)"><path fill="none" stroke="#000000" d="M 694 368 L 885 368" stroke-miterlimit="10"></path></g><g transform="scale(1,1)"><path fill="none" stroke="#000000" d="M 694 378 L 885 378" stroke-miterlimit="10"></path></g><g transform="scale(1,1)"><g><path fill="none" stroke="none"></path><text fill="#000000" stroke="none" font-family="Arial" font-size="13px" font-style="normal" font-weight="normal" text-decoration="none" x="765.5" y="347.5">«libgdx»</text></g></g><g transform="scale(1,1)"><g><path fill="none" stroke="none"></path><text fill="#000000" stroke="none" font-family="Arial" font-size="13px" font-style="normal" font-weight="bold" text-decoration="none" x="746.5" y="362.5">ScreenAdapter</text></g></g><g transform="scale(1,1)"><g><path fill="none" stroke="none"></path><text fill="#000000" stroke="none" font-family="Arial" font-size="13px" font-style="normal" font-weight="normal" text-decoration="none" x="699" y="395.5">+dispose()</text></g></g><g transform="scale(1,1)"><g><path fill="none" stroke="none"></path><text fill="#000000" stroke="none" font-family="Arial" font-size="13px" font-style="normal" font-weight="normal" text-decoration="none" x="699" y="410.5">+hide()</text></g></g><g transform="scale(1,1)"><g><path fill="none" stroke="none"></path><text fill="#000000" stroke="none" font-family="Arial" font-size="13px" font-style="normal" font-weight="normal" text-decoration="none" x="699" y="425.5">+pause()</text></g></g><g transform="scale(1,1)"><g><path fill="none" stroke="none"></path><text fill="#000000" stroke="none" font-family="Arial" font-size="13px" font-style="normal" font-weight="normal" text-decoration="none" x="699" y="440.5">+render(deltaTime)</text></g></g><g transform="scale(1,1)"><g><path fill="none" stroke="none"></path><text fill="#000000" stroke="none" font-family="Arial" font-size="13px" font-style="normal" font-weight="normal" text-decoration="none" x="699" y="455.5">+resize(width, height)</text></g></g><g transform="scale(1,1)"><g><path fill="none" stroke="none"></path><text fill="#000000" stroke="none" font-family="Arial" font-size="13px" font-style="normal" font-weight="normal" text-decoration="none" x="699" y="470.5">+resume()</text></g></g><g transform="scale(1,1)"><g><path fill="none" stroke="none"></path><text fill="#000000" stroke="none" font-family="Arial" font-size="13px" font-style="normal" font-weight="normal" text-decoration="none" x="699" y="485.5">+show()</text></g></g><g transform="scale(1,1)"><rect fill="#C0C0C0" stroke="none" x="553" y="625" width="215" height="175" opacity="0.2"></rect></g><g transform="scale(1,1)"><rect fill="#ffffff" stroke="none" x="546" y="618" width="215" height="175"></rect></g><g transform="scale(1,1)"><path fill="none" stroke="#000000" d="M 546 618 L 761 618 L 761 793 L 546 793 L 546 618 Z" stroke-miterlimit="10"></path></g><g transform="scale(1,1)"><path fill="none" stroke="#000000" d="M 546 643 L 761 643" stroke-miterlimit="10"></path></g><g transform="scale(1,1)"><path fill="none" stroke="#000000" d="M 546 653 L 761 653" stroke-miterlimit="10"></path></g><g transform="scale(1,1)"><g><path fill="none" stroke="none"></path><text fill="#000000" stroke="none" font-family="Arial" font-size="13px" font-style="normal" font-weight="bold" text-decoration="none" x="603" y="637.5">MainMenuScreen</text></g></g><g transform="scale(1,1)"><g><path fill="none" stroke="none"></path><text fill="#000000" stroke="none" font-family="Arial" font-size="13px" font-style="normal" font-weight="normal" text-decoration="none" x="551" y="670.5">+render(deltaTime)</text></g></g><g transform="scale(1,1)"><g><path fill="none" stroke="none"></path><text fill="#000000" stroke="none" font-family="Arial" font-size="13px" font-style="normal" font-weight="normal" text-decoration="none" x="551" y="685.5">+show()</text></g></g><g transform="scale(1,1)"><g><path fill="none" stroke="none"></path><text fill="#000000" stroke="none" font-family="Arial" font-size="13px" font-style="normal" font-weight="normal" text-decoration="none" x="551" y="700.5">+hide()</text></g></g><g transform="scale(1,1)"><rect fill="#C0C0C0" stroke="none" x="857" y="625" width="219" height="176" opacity="0.2"></rect></g><g transform="scale(1,1)"><rect fill="#ffffff" stroke="none" x="850" y="618" width="219" height="176"></rect></g><g transform="scale(1,1)"><path fill="none" stroke="#000000" d="M 850 618 L 1069 618 L 1069 794 L 850 794 L 850 618 Z" stroke-miterlimit="10"></path></g><g transform="scale(1,1)"><path fill="none" stroke="#000000" d="M 850 643 L 1069 643" stroke-miterlimit="10"></path></g><g transform="scale(1,1)"><path fill="none" stroke="#000000" d="M 850 653 L 1069 653" stroke-miterlimit="10"></path></g><g transform="scale(1,1)"><g><path fill="none" stroke="none"></path><text fill="#000000" stroke="none" font-family="Arial" font-size="13px" font-style="normal" font-weight="bold" text-decoration="none" x="896.5" y="637.5">BubbleShooterScreen</text></g></g><g transform="scale(1,1)"><g><path fill="none" stroke="none"></path><text fill="#000000" stroke="none" font-family="Arial" font-size="13px" font-style="normal" font-weight="normal" text-decoration="none" x="855" y="670.5">+render(deltaTime)</text></g></g><g transform="scale(1,1)"><g><path fill="none" stroke="none"></path><text fill="#000000" stroke="none" font-family="Arial" font-size="13px" font-style="normal" font-weight="normal" text-decoration="none" x="855" y="685.5">+show()</text></g></g><g transform="scale(1,1)"><path fill="none" stroke="#000000" d="M 693.5694915254237 617 L 751.6576271186441 491" stroke-miterlimit="10"></path></g><g transform="scale(1,1)"><path fill="#FFFFFF" stroke="none" d="M 750.7937183658248 512.983031221076 L 751.6576271186441 491 L 735.5024009337408 505.93347471001346"></path></g><g transform="scale(1,1)"><path fill="none" stroke="#000000" d="M 750.7937183658248 512.983031221076 L 751.6576271186441 491 L 735.5024009337408 505.93347471001346 L 750.7937183658248 512.983031221076" stroke-miterlimit="10"></path></g><g transform="scale(1,1)"><path fill="none" stroke="#000000" d="M 907.8851351351352 617 L 835.5202702702702 491" stroke-miterlimit="10"></path></g><g transform="scale(1,1)"><path fill="#FFFFFF" stroke="none" d="M 852.9435645974386 504.432379342055 L 835.5202702702702 491 L 838.3422733193829 512.818256089587"></path></g><g transform="scale(1,1)"><path fill="none" stroke="#000000" d="M 852.9435645974386 504.432379342055 L 835.5202702702702 491 L 838.3422733193829 512.818256089587 L 852.9435645974386 504.432379342055" stroke-miterlimit="10"></path></g><g transform="scale(1,1)"><path fill="#ffffff" stroke="none" d="M 926 330 L 1158 330 L 1168 340 L 1168 368 L 926 368 L 926 330"></path></g><g transform="scale(1,1)"><path fill="none" stroke="#000000" d="M 926 330 L 1158 330 L 1168 340 L 1168 368 L 926 368 L 926 330 L 926 330" stroke-miterlimit="10"></path></g><g transform="scale(1,1)"><path fill="none" stroke="#000000" d="M 1158 330 L 1158 340 L 1168 340 L 1158 330" stroke-miterlimit="10"></path></g><g transform="scale(1,1)"><g><path fill="none" stroke="none"></path><text fill="#000000" stroke="none" font-family="Arial" font-size="13px" font-style="normal" font-weight="normal" text-decoration="none" x="931" y="348">NOTE: All methods are empty.</text></g></g><g transform="scale(1,1)"><g><path fill="none" stroke="none"></path><text fill="#000000" stroke="none" font-family="Arial" font-size="13px" font-style="normal" font-weight="normal" text-decoration="none" x="931" y="363">Not all methods have to be overridden.</text></g></g><g transform="scale(1,1)"><path fill="none" stroke="#000000" d="M 886 387.0658914728682 L 958.1803278688524 370" stroke-miterlimit="10" stroke-dasharray="3"></path></g><g transform="scale(1,1)"><path fill="none" stroke="#000000" d="M 465 412.3181818181818 L 694 412.3181818181818" stroke-miterlimit="10"></path></g><g transform="scale(1,1)"><g><path fill="none" stroke="none"></path><text fill="#000000" stroke="none" font-family="Arial" font-size="13px" font-style="normal" font-weight="normal" text-decoration="none" x="483" y="431.31818181818176">1</text></g></g><g transform="scale(1,1)"><g><path fill="none" stroke="none"></path><text fill="#000000" stroke="none" font-family="Arial" font-size="13px" font-style="normal" font-weight="normal" text-decoration="none" x="669" y="431.31818181818176">1</text></g></g><g transform="scale(1,1)"><path fill="#ffffff" stroke="none" d="M 470 286 L 699 286 L 709 296 L 709 309 L 470 309 L 470 286"></path></g><g transform="scale(1,1)"><path fill="none" stroke="#000000" d="M 470 286 L 699 286 L 709 296 L 709 309 L 470 309 L 470 286 L 470 286" stroke-miterlimit="10"></path></g><g transform="scale(1,1)"><path fill="none" stroke="#000000" d="M 699 286 L 699 296 L 709 296 L 699 286" stroke-miterlimit="10"></path></g><g transform="scale(1,1)"><g><path fill="none" stroke="none"></path><text fill="#000000" stroke="none" font-family="Arial" font-size="13px" font-style="normal" font-weight="normal" text-decoration="none" x="475" y="304">Calls show() when screen is switched.</text></g></g><g transform="scale(1,1)"><path fill="none" stroke="#000000" d="M 565.2434782608696 311 L 466 363.11415525114154" stroke-miterlimit="10" stroke-dasharray="3"></path></g><g transform="scale(1,1)"><path fill="none" stroke="#000000" d="M 588.7456140350877 311 L 579 412" stroke-miterlimit="10" stroke-dasharray="3"></path></g></g></svg>